<?xml version="1.0" standalone="no"?>
<!DOCTYPE svg PUBLIC "-//W3C//DTD SVG 20010904//EN" "http://www.w3.org/TR/2001/REC-SVG-20010904/DTD/svg10.dtd">
<svg xmlns="http://www.w3.org/2000/svg" version="1.0" width="1312.000000pt" height="736.000000pt" viewBox="0 0 1312.000000 736.000000" preserveAspectRatio="xMidYMid meet">
<metadata>
Created by potrace 1.16, written by Peter Selinger 2001-2019
<meta name="Producer" content="Online-Convert"/></metadata>
<g transform="translate(0.000000,736.000000) scale(0.100000,-0.100000)" fill="#000000" stroke="none">
<path d="M1290 7310 l0 -50 -138 0 c-180 0 -177 3 -185 -164 -5 -114 -5 -119 17 -141 33 -33 103 -39 354 -32 l212 6 0 -520 0 -519 -255 0 -256 0 -24 -25 -25 -24 0 -811 0 -812 29 -29 29 -29 1060 0 1060 0 31 35 31 36 0 785 c0 818 -1 834 -41 860 -8 5 -367 11 -799 14 l-785 5 -3 345 c-2 190 0 422 3 515 l7 170 1108 -3 c1014 -4 1110 -3 1142 12 20 10 40 27 45 39 5 12 7 72 4 135 -8 154 -6 152 -192 152 l-139 0 0 50 c0 47 -2 50 -25 50 -23 0 -25 -3 -25 -50 l0 -50 -116 0 -117 0 7 50 c7 49 6 50 -19 50 -23 0 -25 -3 -25 -50 l0 -50 -310 0 -310 0 0 50 0 50 -205 0 -205 0 0 -50 0 -50 -310 0 -310 0 0 50 c0 43 -3 50 -20 50 -17 0 -20 -7 -20 -50 l0 -50 -115 0 -115 0 0 50 c0 47 -2 50 -25 50 -23 0 -25 -3 -25 -50z m2592 -267 c24 -22 23 -52 -4 -80 l-21 -23 -1424 0 c-1410 0 -1423 0 -1443 20 -22 22 -26 51 -10 81 11 19 37 19 1447 19 1323 0 1438 -1 1455 -17z m-752 -1233 c13 -8 15 -105 16 -772 0 -420 -4 -771 -8 -780 -8 -17 -67 -18 -1026 -18 -779 0 -1021 3 -1030 12 -9 9 -12 196 -12 780 0 720 1 768 18 777 23 14 2021 15 2042 1z"/>
<path d="M1202 5508 l3 -23 210 0 c203 0 210 1 210 20 0 19 -8 20 -213 23 l-213 2 3 -22z"/>
<path d="M1200 5415 l0 -25 245 0 245 0 0 25 0 25 -245 0 -245 0 0 -25z"/>
<path d="M1207 5343 c-4 -3 -7 -15 -7 -25 0 -17 15 -18 285 -18 272 0 285 1 285 19 0 11 -9 21 -22 25 -31 8 -533 8 -541 -1z"/>
<path d="M1200 5230 c0 -19 7 -20 200 -22 110 -1 215 -2 233 -2 26 -1 33 3 35 22 l3 22 -235 0 c-229 0 -236 -1 -236 -20z"/>
<path d="M2824 5207 c-22 -13 -68 -43 -102 -66 l-62 -42 0 -50 c0 -42 5 -54 28 -75 47 -45 51 -45 150 1 50 24 92 47 91 52 0 4 -4 17 -8 28 -6 15 -1 26 21 46 37 35 35 51 -7 94 -42 41 -56 43 -111 12z"/>
<path d="M5420 7310 l0 -50 -143 0 c-184 0 -179 4 -189 -159 l-6 -116 29 -30 29 -30 1393 -3 c765 -1 1406 0 1422 3 17 3 42 15 57 28 26 23 27 24 22 123 -7 126 -9 139 -36 164 -20 18 -35 20 -155 20 l-133 0 0 50 c0 47 -2 50 -25 50 -23 0 -25 -3 -25 -50 l0 -50 -115 0 -115 0 0 50 c0 47 -1 50 -26 50 -26 0 -27 -1 -21 -50 l6 -50 -309 0 -310 0 0 50 0 50 -210 0 -210 0 0 -50 0 -50 -311 0 -312 0 5 50 c5 47 4 50 -18 50 -22 0 -24 -4 -24 -50 l0 -50 -115 0 -115 0 0 50 c0 43 -3 50 -20 50 -17 0 -20 -7 -20 -50z m2579 -260 c10 -5 21 -17 25 -25 7 -20 -18 -70 -39 -79 -9 -3 -655 -6 -1434 -6 -1338 0 -1419 1 -1433 18 -28 31 -31 59 -9 81 21 21 22 21 1447 21 904 0 1432 -4 1443 -10z"/>
<path d="M9530 7310 l0 -50 -139 0 -139 0 -26 -31 c-25 -29 -26 -36 -26 -149 0 -117 0 -118 28 -136 26 -18 73 -19 1147 -22 875 -2 1121 -5 1127 -15 4 -6 8 -40 8 -74 l0 -63 -2497 -3 -2498 -2 2498 -3 2497 -2 0 -435 0 -435 -787 0 c-755 0 -789 0 -813 -18 -17 -13 -27 -33 -32 -63 -5 -24 -7 -392 -5 -817 l2 -774 33 -29 32 -29 1061 0 1061 0 29 29 29 29 0 806 0 806 -28 31 -27 30 -253 0 -252 0 0 517 1 517 269 0 c336 0 316 -10 311 157 -2 114 -15 160 -46 172 -9 3 -75 6 -146 6 l-129 0 0 50 c0 47 -2 50 -25 50 -23 0 -25 -3 -25 -50 l0 -50 -110 0 -110 0 0 50 c0 47 -2 50 -25 50 -23 0 -25 -3 -25 -50 l0 -50 -310 0 -310 0 0 50 0 50 -205 0 -205 0 0 -50 0 -50 -315 0 -315 0 0 50 c0 43 -3 50 -20 50 -17 0 -20 -7 -20 -50 l0 -50 -110 0 -110 0 0 50 c0 47 -2 50 -25 50 -23 0 -25 -3 -25 -50z m2594 -272 c21 -29 20 -31 -10 -67 l-26 -31 -1416 0 -1416 0 -23 22 c-27 25 -30 60 -7 82 14 14 159 16 1449 16 l1434 0 15 -22z m-100 -1234 c14 -14 16 -96 14 -787 l-3 -772 -1034 -3 c-821 -2 -1036 0 -1043 10 -4 7 -8 356 -7 776 0 662 3 764 15 777 14 13 143 15 1029 15 910 0 1015 -2 1029 -16z"/>
<path d="M10922 4823 l3 -28 145 0 145 0 0 25 0 25 -148 3 -148 3 3 -28z"/>
<path d="M13098 7065 l4 -295 -764 -3 -763 -2 768 -3 767 -2 0 300 c0 165 -3 300 -7 300 -5 0 -6 -133 -5 -295z"/>
<path d="M0 6768 c0 -5 348 -7 773 -6 424 1 693 4 597 5 -441 7 -1370 7 -1370 1z"/>
<path d="M2380 6770 c-421 -3 338 -5 1685 -5 1348 0 2178 1 1845 2 -1470 7 -2822 8 -3530 3z"/>
<path d="M6530 6493 c-11 -51 -44 -158 -71 -231 -9 -23 -10 -23 -64 26 -30 28 -80 62 -110 76 -53 25 -145 46 -145 32 0 -4 18 -30 41 -58 41 -52 70 -104 83 -145 6 -19 4 -23 -15 -23 -65 0 -351 -71 -460 -115 -13 -5 -24 7 -47 47 -81 140 -226 282 -347 340 -79 37 -90 37 -70 -2 28 -54 20 -61 -37 -30 -86 46 -167 62 -293 58 -87 -2 -118 -8 -149 -24 -22 -11 -41 -25 -43 -31 -2 -5 26 -22 63 -38 69 -29 70 -36 4 -50 -19 -4 -68 -23 -109 -42 -94 -45 -206 -152 -244 -235 -40 -84 -38 -89 26 -72 28 7 60 14 70 14 18 0 18 -1 -1 -32 -59 -99 -73 -253 -33 -360 46 -121 144 -220 292 -296 101 -52 103 -70 10 -100 -110 -36 -111 -37 -118 -177 -6 -131 -15 -157 -103 -300 -43 -71 -123 -227 -134 -262 -7 -21 -6 -21 46 -7 80 21 81 20 44 -53 -19 -38 -44 -96 -55 -130 -25 -76 -47 -237 -37 -277 l7 -29 50 49 50 49 -6 -37 c-12 -64 14 -244 50 -358 51 -154 156 -330 198 -330 10 0 17 18 23 58 l9 57 32 -56 c157 -278 549 -551 1102 -769 l54 -21 -6 46 -7 45 93 -78 c50 -43 128 -107 172 -141 44 -35 82 -65 84 -67 2 -2 -14 -25 -36 -51 -56 -68 -153 -200 -153 -210 0 -4 43 -51 97 -105 l96 -97 -28 -170 -28 -171 -811 0 c-767 0 -813 -1 -851 -19 -22 -10 -51 -30 -63 -44 -44 -47 -45 -86 -12 -376 78 -682 93 -808 116 -974 13 -98 24 -183 24 -188 0 -5 713 -9 1780 -9 l1780 0 5 22 c5 24 42 337 121 1016 45 385 46 405 31 438 -19 40 -69 73 -112 75 -28 1 -27 2 9 10 30 7 45 6 65 -6 22 -14 22 -12 -4 10 -16 14 -46 30 -65 35 -22 6 -340 10 -837 10 l-801 0 -6 27 c-3 16 -17 94 -31 174 l-26 145 98 97 c114 112 116 84 -15 253 l-83 106 23 16 c13 9 92 74 176 145 85 70 151 120 148 110 -3 -10 -8 -30 -12 -45 l-6 -28 53 19 c30 10 117 46 194 80 329 146 571 299 751 477 70 68 106 116 191 250 10 17 12 15 13 -16 2 -100 31 -105 95 -16 60 85 120 217 152 335 21 75 27 121 27 208 l1 112 46 -45 46 -46 7 26 c9 37 -11 193 -35 272 -12 38 -37 99 -55 137 -38 74 -37 74 44 53 28 -8 52 -11 52 -6 0 20 -67 154 -147 293 l-87 152 -6 121 c-3 73 -10 127 -17 136 -7 8 -49 27 -93 42 -105 37 -106 53 -9 101 182 90 281 206 315 368 22 106 4 201 -64 329 -3 6 58 -8 116 -26 31 -10 29 16 -8 91 -58 116 -199 226 -343 268 -32 9 -55 20 -52 25 3 5 27 16 54 25 27 9 55 23 61 31 10 12 4 18 -36 37 -44 19 -65 22 -189 22 -149 -1 -222 -17 -288 -66 -38 -28 -43 -19 -17 30 25 50 17 51 -64 10 -125 -64 -237 -169 -328 -308 -27 -42 -53 -76 -56 -76 -4 0 -56 17 -117 37 -111 36 -292 78 -340 78 -57 0 -32 64 56 144 27 24 49 47 49 51 0 4 -28 5 -62 3 -73 -6 -153 -40 -220 -91 l-48 -37 -5 28 c-32 151 -63 238 -95 267 -17 16 -19 14 -30 -42z m295 -1068 c216 -7 496 -33 852 -80 269 -35 317 -50 328 -100 3 -14 7 -36 10 -49 4 -19 9 -22 32 -18 16 2 33 9 39 13 6 5 14 6 17 2 4 -3 7 -119 7 -257 0 -182 -4 -258 -13 -276 -7 -14 -33 -36 -59 -50 -26 -14 -57 -39 -70 -55 -12 -17 -29 -36 -38 -43 -34 -30 -182 -93 -284 -121 -103 -29 -289 -55 -332 -46 -10 2 -40 6 -66 9 l-47 6 32 -53 c43 -69 53 -92 78 -190 100 -391 -74 -776 -426 -943 -261 -124 -562 -90 -801 89 -176 133 -303 400 -304 639 0 133 42 299 102 401 34 57 34 60 7 52 -39 -13 -234 -6 -312 10 -104 21 -295 86 -350 118 -24 14 -54 41 -67 60 -13 18 -45 46 -72 61 -77 43 -78 49 -78 335 l0 250 50 -6 50 -6 0 36 c0 23 8 45 23 63 24 28 85 43 262 64 44 5 157 18 250 29 337 41 828 73 975 64 25 -1 117 -5 205 -8z m-182 -4679 c106 -44 153 -184 96 -287 -54 -97 -161 -133 -262 -86 -164 75 -168 281 -7 367 42 23 127 26 173 6z"/>
<path d="M5823 5305 c-15 -30 -24 -58 -20 -61 12 -12 210 -8 253 4 22 7 49 21 59 32 17 19 17 21 0 40 -26 28 -77 40 -178 40 l-87 0 -27 -55z"/>
<path d="M7066 5350 c-34 -11 -66 -38 -66 -57 0 -8 21 -24 48 -35 38 -18 67 -22 157 -22 113 -1 172 11 196 41 11 13 9 19 -14 39 -15 13 -44 28 -65 33 -44 13 -215 13 -256 1z"/>
<path d="M5923 4900 c-99 -60 -76 -217 37 -251 85 -26 190 48 190 134 0 23 -8 55 -19 73 -37 61 -144 84 -208 44z"/>
<path d="M7043 4905 c-81 -35 -97 -146 -30 -213 20 -20 39 -33 43 -29 4 3 -8 18 -25 33 -36 30 -37 57 -3 59 24 2 42 -20 35 -45 -2 -8 2 -5 8 7 6 12 24 23 40 25 27 4 30 1 40 -35 6 -21 8 -42 4 -45 -3 -3 -25 -6 -48 -5 -40 1 -40 0 -12 -8 116 -34 210 102 145 209 -35 57 -125 78 -197 47z"/>
<path d="M6473 4550 c-132 -20 -241 -76 -275 -140 -12 -23 -18 -55 -18 -95 1 -147 116 -273 286 -311 l75 -16 -3 -106 -3 -106 -120 -18 c-229 -34 -225 -34 -293 -3 -33 15 -69 36 -78 46 -21 23 -50 25 -58 4 -8 -22 27 -53 99 -86 48 -23 66 -37 76 -61 21 -52 111 -133 191 -172 130 -64 277 -66 406 -6 71 33 172 123 197 176 12 27 31 41 88 67 86 40 107 61 85 83 -13 13 -20 11 -65 -19 -88 -59 -121 -63 -301 -37 -86 12 -163 24 -169 26 -9 2 -13 33 -13 108 0 118 -8 106 81 121 58 9 154 62 194 106 76 85 108 215 71 288 -20 38 -80 89 -130 110 -90 39 -228 56 -323 41z"/>
<path d="M334 3693 c-12 -2 -30 -13 -40 -25 -18 -19 -19 -51 -22 -557 -3 -562 -1 -600 40 -622 14 -8 125 -12 342 -13 l321 -1 0 -135 0 -135 -220 -3 c-193 -2 -222 -4 -232 -19 -17 -23 -16 -48 3 -67 14 -14 85 -16 633 -16 466 0 620 3 629 12 7 7 12 24 12 38 0 48 -9 50 -246 50 -123 0 -225 3 -227 8 -2 4 -2 67 1 140 l5 132 314 0 314 0 25 25 24 25 -2 555 -3 555 -25 24 -25 25 -800 4 c-440 2 -810 2 -821 0z m1597 -70 c19 -22 27 -1056 9 -1079 -18 -21 -1571 -21 -1589 0 -12 14 -18 1067 -6 1086 4 7 281 10 789 10 716 0 785 -1 797 -17z"/>
<path d="M2644 3692 l-381 -2 -24 -26 -24 -26 -3 -553 -2 -553 24 -28 24 -28 323 -1 324 0 3 -137 3 -138 -228 -2 -228 -3 -9 -28 c-7 -19 -7 -34 0 -45 10 -16 61 -17 638 -20 l626 -2 12 25 c9 20 8 31 -2 50 l-13 25 -226 2 -226 3 -3 138 -3 137 335 0 335 0 20 26 c21 26 21 35 21 571 0 602 1 592 -62 612 -32 10 -244 10 -1254 3z m1240 -74 c14 -20 16 -88 16 -545 0 -506 -1 -523 -19 -533 -13 -7 -281 -10 -800 -10 -718 0 -781 1 -796 17 -16 15 -17 54 -15 432 3 511 8 628 27 647 12 12 133 14 793 14 l779 0 15 -22z"/>
<path d="M9223 3692 c-13 -2 -32 -15 -43 -29 -20 -25 -20 -39 -20 -578 0 -544 0 -553 21 -579 l20 -26 330 0 329 0 0 -140 0 -140 -227 -2 -228 -3 -9 -28 c-7 -19 -7 -34 0 -45 10 -16 59 -17 639 -17 580 0 629 1 639 17 7 11 7 26 0 45 l-9 28 -228 3 -227 2 0 141 0 140 223 -1 c426 -3 415 -3 442 25 l25 24 0 554 0 553 -29 28 -28 27 -799 2 c-439 2 -809 1 -821 -1z m1595 -68 l22 -15 0 -528 c0 -396 -3 -530 -12 -539 -16 -16 -1559 -17 -1589 -1 -19 10 -20 23 -19 533 1 447 3 526 16 545 l15 21 772 0 c683 0 775 -2 795 -16z"/>
<path d="M9973 3173 c-10 -3 -13 -58 -13 -224 l0 -219 25 0 c14 0 28 6 31 14 9 24 -10 429 -21 432 -5 1 -16 0 -22 -3z"/>
<path d="M10447 3013 c-4 -3 -7 -69 -7 -145 0 -117 2 -140 16 -145 8 -3 20 -1 27 6 15 15 20 260 6 278 -12 14 -32 17 -42 6z"/>
<path d="M11375 3692 c-209 -2 -220 -3 -242 -24 l-23 -21 0 -562 0 -562 23 -21 c23 -22 29 -22 340 -22 l317 0 0 -140 0 -140 -226 -2 c-214 -3 -227 -4 -240 -23 -11 -16 -11 -25 -1 -45 l13 -25 629 0 629 0 7 27 c4 17 2 34 -8 47 -14 20 -23 21 -234 21 l-220 0 3 138 3 137 320 2 c219 2 327 7 342 14 12 7 27 26 33 44 13 39 12 1044 -2 1097 -5 21 -17 42 -28 48 -19 10 -951 18 -1435 12z m1396 -62 c18 -10 19 -27 19 -545 0 -518 -1 -535 -19 -545 -30 -15 -1573 -14 -1589 2 -17 17 -17 1069 0 1086 16 16 1559 17 1589 2z"/>
<path d="M393 1683 l397 -3 0 -561 c0 -444 3 -560 13 -557 9 4 13 93 15 391 2 324 5 387 16 387 12 0 12 6 3 30 -9 25 -9 36 4 58 l15 27 217 3 c209 2 217 2 238 -19 14 -14 20 -30 17 -49 -2 -16 -1 -27 4 -24 17 10 7 56 -17 79 -24 25 -24 25 -236 25 -205 0 -214 -1 -236 -22 l-23 -21 0 131 0 132 -412 -2 -413 -3 398 -2z"/>
<path d="M2088 1683 l1262 -3 0 -840 c0 -740 2 -840 15 -840 13 0 15 101 15 845 l0 845 -1277 -2 -1278 -3 1263 -2z"/>
<path d="M9140 1686 c0 -7 52 -96 56 -96 2 0 -5 18 -16 40 -11 21 -20 42 -20 45 0 3 129 5 288 5 l287 0 4 -838 c2 -460 5 -839 7 -841 2 -2 6 -2 9 0 2 3 6 384 8 847 l3 842 -313 0 c-172 0 -313 -2 -313 -4z"/>
<path d="M10343 1683 c312 -2 822 -2 1135 0 312 1 56 2 -568 2 -624 0 -880 -1 -567 -2z"/>
<path d="M12110 1415 c0 -238 2 -275 15 -275 13 0 15 37 15 275 0 238 -2 275 -15 275 -13 0 -15 -37 -15 -275z"/>
<path d="M12070 248 c0 -100 3 -178 6 -175 4 3 16 1 28 -5 17 -9 19 -8 9 3 -9 9 -13 53 -13 146 l0 133 35 0 35 0 0 -140 c0 -107 3 -139 13 -137 7 1 13 -10 15 -25 2 -16 -2 -28 -8 -28 -6 0 -8 -4 -5 -10 11 -18 73 -12 85 9 6 12 10 100 10 215 l0 196 -105 0 -105 0 0 -182z"/>
<path d="M968 413 c-56 -4 -58 -5 -58 -32 0 -17 7 -31 16 -35 23 -9 33 1 26 26 -4 18 -2 20 16 16 12 -4 25 -2 28 3 10 17 24 9 24 -15 0 -18 -7 -26 -22 -29 -20 -4 -20 -4 4 -6 15 0 29 -5 32 -9 2 -4 48 -9 100 -11 l96 -2 0 50 0 51 -102 -2 c-57 -1 -129 -3 -160 -5z"/>
<path d="M2268 413 l-58 -4 1 -67 c0 -65 5 -66 23 -8 5 15 13 18 43 13 20 -4 39 -10 42 -14 3 -5 51 -8 106 -8 l100 0 0 45 0 45 -100 1 c-55 0 -126 -1 -157 -3z"/>
<path d="M1672 373 l3 -38 103 -3 102 -3 0 41 0 40 -106 0 -105 0 3 -37z"/>
</g>
</svg>
